<svg xmlns="http://www.w3.org/2000/svg" width="117.781" height="20.5" viewBox="0 0 117.781 20.5">
  <defs>
    <style>
      .cls-1 {
        fill: #fff;        
      }
    </style>
  </defs>
  <path class="cls-1" d="M251.983,29.322V45H247.01V29.322h-7V25H259v4.324h-7.013Zm17.056,0.365L262.812,45h-5l8.317-20h5.823l8.141,20h-5Zm30.944,4.759-4.435,7.295h-3.176l-4.451-7.295V45H282.98V25h4.265l6.73,10.87L300.705,25h4.265V45h-4.987V34.446Zm29.235,6.548c1.882,0,2.764-.643,2.764-2,0-1.471-1.058-2.022-3-2.022h-6.005v4.018h6.241Zm-1.383-8.018c1.735,0,2.736-.713,2.736-2.066,0-1.412-.942-1.939-2.677-1.939h-4.917v4.006h4.858ZM318.005,25h10.6c4.471,0,7.059,1.706,7.059,5.382a4.387,4.387,0,0,1-2.883,4.206c2.794,0.588,4.471,2.177,4.471,5,0,3.353-2.588,5.412-7.294,5.412H318.005V25Zm27,12.293-7.618-11.941L337.162,25h5.725l4.588,7.735L352.064,25h5.721l-0.222.352L350,37.263V45h-4.993V37.292Zm-82.7.715h13.278V41.97H262.3V38.007ZM311.474,45.5a3.008,3.008,0,1,0-3.007-3.007A3.013,3.013,0,0,0,311.474,45.5Z" transform="translate(-240 -25)"/>
</svg>
