<svg xmlns="http://www.w3.org/2000/svg" style="display:none;"><defs><style>.cls-1{fill:#fff;filter:url(#filter)}.cls-2,.cls-4{fill:#93b74a}.cls-3{opacity:.8}.cls-5{opacity:.2}</style><filter id="filter" x="0" y="0" width="207" height="147" filterUnits="userSpaceOnUse"><feOffset result="offset" dy="1" in="SourceAlpha"/><feGaussianBlur result="blur" stdDeviation="2"/><feFlood result="flood" flood-color="#010101" flood-opacity=".05"/><feComposite result="composite" operator="in" in2="blur"/><feBlend result="blend" in="SourceGraphic"/></filter><style>.cls-1{fill:#94b651}</style><style>.cls-1{fill:#fff;filter:url(#filter)}.cls-2{fill:#ea4953;fill-rule:evenodd}</style><filter id="filter" x="0" y="0" width="207" height="147" filterUnits="userSpaceOnUse"><feOffset result="offset" dy="1" in="SourceAlpha"/><feGaussianBlur result="blur" stdDeviation="2"/><feFlood result="flood" flood-color="#010101" flood-opacity=".05"/><feComposite result="composite" operator="in" in2="blur"/><feBlend result="blend" in="SourceGraphic"/></filter><style>.cls-1{fill-rule:evenodd;opacity:.4}</style><style>.cls-1,.cls-4,.cls-5,.cls-6{fill:#fff}.cls-1{filter:url(#filter)}.cls-2,.cls-3{fill:#93b74a}.cls-3{filter:url(#filter-2)}.cls-6{filter:url(#filter-3)}</style><filter id="filter" x="0" y="0" width="207" height="47" filterUnits="userSpaceOnUse"><feOffset result="offset" dy="1" in="SourceAlpha"/><feGaussianBlur result="blur" stdDeviation="2"/><feFlood result="flood" flood-color="#010101" flood-opacity=".05"/><feComposite result="composite" operator="in" in2="blur"/><feBlend result="blend" in="SourceGraphic"/></filter><filter id="filter-2" x="0" y="50" width="207" height="47" filterUnits="userSpaceOnUse"><feOffset result="offset" dy="1" in="SourceAlpha"/><feGaussianBlur result="blur" stdDeviation="2"/><feFlood result="flood" flood-color="#010101" flood-opacity=".05"/><feComposite result="composite" operator="in" in2="blur"/><feBlend result="blend" in="SourceGraphic"/></filter><filter id="filter-3" x="0" y="100" width="207" height="47" filterUnits="userSpaceOnUse"><feOffset result="offset" dy="1" in="SourceAlpha"/><feGaussianBlur result="blur" stdDeviation="2"/><feFlood result="flood" flood-color="#010101" flood-opacity=".05"/><feComposite result="composite" operator="in" in2="blur"/><feBlend result="blend" in="SourceGraphic"/></filter><style>.cls-1{fill:#fff;filter:url(#filter)}.cls-2{fill:#93b74a}</style><filter id="filter" x="0" y="0" width="207" height="147" filterUnits="userSpaceOnUse"><feOffset result="offset" dy="1" in="SourceAlpha"/><feGaussianBlur result="blur" stdDeviation="2"/><feFlood result="flood" flood-color="#010101" flood-opacity=".05"/><feComposite result="composite" operator="in" in2="blur"/><feBlend result="blend" in="SourceGraphic"/></filter><style>.cls-1{fill:#94b651}</style><style>.cls-1{fill:#94b651}</style><style>.cls-1{fill:#94b651}</style><style>.cls-1{fill:#94b651}</style><style>.cls-1,.cls-5,.cls-6{fill:#fff}.cls-1{filter:url(#filter)}.cls-2{opacity:.8}.cls-3{fill:#93b74a}.cls-4{opacity:.2}.cls-5{filter:url(#filter-2)}.cls-6{filter:url(#filter-3)}</style><filter id="filter" x="0" y="0" width="207" height="47" filterUnits="userSpaceOnUse"><feOffset result="offset" dy="1" in="SourceAlpha"/><feGaussianBlur result="blur" stdDeviation="2"/><feFlood result="flood" flood-color="#010101" flood-opacity=".05"/><feComposite result="composite" operator="in" in2="blur"/><feBlend result="blend" in="SourceGraphic"/></filter><filter id="filter-2" x="0" y="50" width="207" height="47" filterUnits="userSpaceOnUse"><feOffset result="offset" dy="1" in="SourceAlpha"/><feGaussianBlur result="blur" stdDeviation="2"/><feFlood result="flood" flood-color="#010101" flood-opacity=".05"/><feComposite result="composite" operator="in" in2="blur"/><feBlend result="blend" in="SourceGraphic"/></filter><filter id="filter-3" x="0" y="100" width="207" height="47" filterUnits="userSpaceOnUse"><feOffset result="offset" dy="1" in="SourceAlpha"/><feGaussianBlur result="blur" stdDeviation="2"/><feFlood result="flood" flood-color="#010101" flood-opacity=".05"/><feComposite result="composite" operator="in" in2="blur"/><feBlend result="blend" in="SourceGraphic"/></filter><style>.cls-1{fill:#ea4953}</style><style>.cls-1{fill:#fff;filter:url(#filter)}.cls-2{fill-rule:evenodd;opacity:.2}.cls-3{fill:#93b74a}</style><filter id="filter" x="0" y="0" width="207" height="147" filterUnits="userSpaceOnUse"><feOffset result="offset" dy="1" in="SourceAlpha"/><feGaussianBlur result="blur" stdDeviation="2"/><feFlood result="flood" flood-color="#010101" flood-opacity=".05"/><feComposite result="composite" operator="in" in2="blur"/><feBlend result="blend" in="SourceGraphic"/></filter></defs><symbol id="icon-checked-order" viewBox="0 0 207 147"><path id="Rectangle_13_copy_19" data-name="Rectangle 13 copy 19" class="cls-1" d="M3 2h200v140H3z"/><path id="Rectangle_13_copy_31" data-name="Rectangle 13 copy 31" class="cls-2" d="M1223.35 388.06l32.71-32.708 4.25 4.242-32.71 32.706zm4.25 4.243l-19.91-19.9 4.24-4.236 19.9 19.9z" transform="translate(-1127 -292)"/><path id="Rectangle_13_copy_25" data-name="Rectangle 13 copy 25" class="cls-3" d="M13 12h120v6H13z"/><path id="Rectangle_13_copy_25-2" data-name="Rectangle 13 copy 25" class="cls-4" d="M173 12h20v6h-20z"/><path id="Rectangle_13_copy_25-3" data-name="Rectangle 13 copy 25" class="cls-5" d="M13 26h40v6H13z"/></symbol><symbol id="icon-clock" viewBox="0 0 86 86"><path class="cls-1" d="M43 86a43 43 0 1 1 43-43 43.049 43.049 0 0 1-43 43zm0-82a39 39 0 1 0 39 39A39.044 39.044 0 0 0 43 4zm0 12a2 2 0 0 1-2-2V8a2 2 0 0 1 4 0v6a2 2 0 0 1-2 2zm0 64a2 2 0 0 1-2-2v-6a2 2 0 0 1 4 0v6a2 2 0 0 1-2 2zm35-35h-6a2 2 0 0 1 0-4h6a2 2 0 0 1 0 4zm-64 0H8a2 2 0 0 1 0-4h6a2 2 0 0 1 0 4zm29 0a2 2 0 0 1-2-2V25a2 2 0 0 1 4 0v18a2 2 0 0 1-2 2zm22 0H43a2 2 0 0 1 0-4h22a2 2 0 0 1 0 4zm-1.494-20.506a2 2 0 0 1-1.414-3.414l4.243-4.243a2 2 0 1 1 2.828 2.828l-4.243 4.243a1.99 1.99 0 0 1-1.414.586zM18.252 69.749a2 2 0 0 1-1.415-3.414l4.243-4.243a2 2 0 1 1 2.828 2.828l-4.242 4.243a1.994 1.994 0 0 1-1.414.586zm49.5 0a1.99 1.99 0 0 1-1.414-.586l-4.243-4.243a2 2 0 1 1 2.828-2.828l4.243 4.243a2 2 0 0 1-1.417 3.414zM22.497 24.494a1.99 1.99 0 0 1-1.414-.586l-4.243-4.243a2 2 0 1 1 2.829-2.828l4.242 4.243a2 2 0 0 1-1.417 3.414z"/></symbol><symbol id="icon-feedback" viewBox="0 0 207 147"><path id="Rectangle_13_copy_30" data-name="Rectangle 13 copy 30" class="cls-1" d="M3 2h200v140H3z"/><path id="Rectangle_13_copy_30-2" data-name="Rectangle 13 copy 30" d="M23 42h50v6H23z"/><path id="Shape_5_copy_6" data-name="Shape 5 copy 6" class="cls-2" d="M1004.5 2269.25l4.63 2.75-1.23-5.18 4.1-3.48-5.39-.45-2.11-4.89-2.11 4.89-5.39.45 4.1 3.48-1.235 5.18zm17 0l4.63 2.75-1.23-5.18 4.1-3.48-5.39-.45-2.11-4.89-2.11 4.89-5.39.45 4.1 3.48-1.23 5.18zm17 0l4.63 2.75-1.23-5.18 4.1-3.48-5.39-.45-2.11-4.89-2.11 4.89-5.39.45 4.1 3.48-1.23 5.18zm17 0l4.63 2.75-1.23-5.18 4.1-3.48-5.39-.45-2.11-4.89-2.11 4.89-5.39.45 4.1 3.48-1.23 5.18zm17 0l4.63 2.75-1.23-5.18 4.1-3.48-5.39-.45-2.11-4.89-2.11 4.89-5.39.45 4.1 3.48-1.23 5.18z" transform="translate(-897 -2221)"/><path id="Rectangle_13_copy_30-3" data-name="Rectangle 13 copy 30" d="M23 68h30v6H23z"/><path id="Shape_5_copy_6-2" data-name="Shape 5 copy 6" class="cls-2" d="M1004.5 2295.25l4.63 2.75-1.23-5.18 4.1-3.49-5.39-.44-2.11-4.89-2.11 4.89-5.39.44 4.1 3.49-1.235 5.18zm17 0l4.63 2.75-1.23-5.18 4.1-3.49-5.39-.44-2.11-4.89-2.11 4.89-5.39.44 4.1 3.49-1.23 5.18zm17 0l4.63 2.75-1.23-5.18 4.1-3.49-5.39-.44-2.11-4.89-2.11 4.89-5.39.44 4.1 3.49-1.23 5.18zm17 0l4.63 2.75-1.23-5.18 4.1-3.49-5.39-.44-2.11-4.89-2.11 4.89-5.39.44 4.1 3.49-1.23 5.18zm17 0l4.63 2.75-1.23-5.18 4.1-3.49-5.39-.44-2.11-4.89-2.11 4.89-5.39.44 4.1 3.49-1.23 5.18z" transform="translate(-897 -2221)"/><path id="Rectangle_13_copy_30-4" data-name="Rectangle 13 copy 30" d="M23 94h50v6H23z"/><path id="Shape_5_copy_6-3" data-name="Shape 5 copy 6" class="cls-2" d="M1004.5 2321.25l4.63 2.75-1.23-5.18 4.1-3.48-5.39-.45-2.11-4.89-2.11 4.89-5.39.45 4.1 3.48-1.235 5.18zm17 0l4.63 2.75-1.23-5.18 4.1-3.48-5.39-.45-2.11-4.89-2.11 4.89-5.39.45 4.1 3.48-1.23 5.18zm17 0l4.63 2.75-1.23-5.18 4.1-3.48-5.39-.45-2.11-4.89-2.11 4.89-5.39.45 4.1 3.48-1.23 5.18zm17 0l4.63 2.75-1.23-5.18 4.1-3.48-5.39-.45-2.11-4.89-2.11 4.89-5.39.45 4.1 3.48-1.23 5.18zm17 0l4.63 2.75-1.23-5.18 4.1-3.48-5.39-.45-2.11-4.89-2.11 4.89-5.39.45 4.1 3.48-1.23 5.18z" transform="translate(-897 -2221)"/></symbol><symbol id="icon-location" viewBox="0 0 15.343 13.406"><path id="Shape_10_copy_25" data-name="Shape 10 copy 25" class="cls-1" d="M669.924 34.656l6.542 1.294-.627 6.876 9.461-13.415z" transform="translate(-669.938 -29.406)"/></symbol><symbol id="icon-offer" viewBox="0 0 207 147"><path id="Rectangle_13_copy_30" data-name="Rectangle 13 copy 30" class="cls-1" d="M3 2h200v40H3z"/><path id="Rectangle_13_copy_30-2" data-name="Rectangle 13 copy 30" d="M13 12h120v6H13z"/><path id="Rectangle_13_copy_30-3" data-name="Rectangle 13 copy 30" class="cls-2" d="M173 12h20v6h-20z"/><path id="Rectangle_13_copy_30-4" data-name="Rectangle 13 copy 30" d="M13 26h40v6H13z"/><path id="Rectangle_13_copy_30-5" data-name="Rectangle 13 copy 30" class="cls-3" d="M3 52h200v40H3z"/><path id="Rectangle_13_copy_30-6" data-name="Rectangle 13 copy 30" class="cls-4" d="M13 62h80v6H13z"/><path id="Rectangle_13_copy_32" data-name="Rectangle 13 copy 32" class="cls-5" d="M1075.35 1934.06l12.71-12.71 4.25 4.24-12.71 12.71zm4.25 4.24l-9.91-9.9 4.24-4.24 9.9 9.91z" transform="translate(-897 -1860)"/><path id="Rectangle_13_copy_30-7" data-name="Rectangle 13 copy 30" class="cls-4" d="M13 76h40v6H13z"/><path id="Rectangle_13_copy_30-8" data-name="Rectangle 13 copy 30" class="cls-6" d="M3 102h200v40H3z"/><path id="Rectangle_13_copy_30-9" data-name="Rectangle 13 copy 30" d="M13 112h120v6H13z"/><path id="Rectangle_13_copy_30-10" data-name="Rectangle 13 copy 30" class="cls-2" d="M173 112h20v6h-20z"/><path id="Rectangle_13_copy_30-11" data-name="Rectangle 13 copy 30" d="M13 126h40v6H13z"/></symbol><symbol id="icon-order" viewBox="0 0 207 147"><path id="Rectangle_13_copy_10" data-name="Rectangle 13 copy 10" class="cls-1" d="M3 2h200v140H3z"/><path id="Rectangle_13_copy_30" data-name="Rectangle 13 copy 30" class="cls-2" d="M173 12h20v6h-20z"/><path id="Rectangle_13_copy_30-2" data-name="Rectangle 13 copy 30" d="M13 12h130v6H13z"/><path id="Rectangle_13_copy_30-3" data-name="Rectangle 13 copy 30" class="cls-3" d="M910 1568h180.01v86H910v-86z" transform="translate(-897 -1522)"/><path id="Rectangle_13_copy_30-4" data-name="Rectangle 13 copy 30" d="M13 26h40v6H13z"/></symbol><symbol id="icon-pc-add" viewBox="0 0 108 68"><path class="cls-1" d="M100 68H8a8.011 8.011 0 0 1-8-8v-4a2.006 2.006 0 0 1 2-2h104a2.006 2.006 0 0 1 2 2v4a8.011 8.011 0 0 1-8 8zM4 58v2a4 4 0 0 0 4 4h92a4 4 0 0 0 4-4v-2H4zm92 0H12a2.006 2.006 0 0 1-2-2V8a8.011 8.011 0 0 1 8-8h72a8.011 8.011 0 0 1 8 8v48a2.006 2.006 0 0 1-2 2zm-82-4h80V8a4 4 0 0 0-4-4H18a4 4 0 0 0-4 4v46zm40-8a17 17 0 1 1 17-17 17.024 17.024 0 0 1-17 17zm0-30a13 13 0 1 0 13 13 13.012 13.012 0 0 0-13-13zm7 15H47a2 2 0 0 1 0-4h14a2 2 0 0 1 0 4zm-7 7a2.006 2.006 0 0 1-2-2V22a2 2 0 0 1 4 0v14a2.006 2.006 0 0 1-2 2z"/></symbol><symbol id="icon-pc" viewBox="0 0 108 68"><path class="cls-1" d="M100 68H8a8.01 8.01 0 0 1-8-8v-4a2 2 0 0 1 2-2h104a2 2 0 0 1 2 2v4a8.01 8.01 0 0 1-8 8zM4 58v2a4 4 0 0 0 4 4h92a4 4 0 0 0 4-4v-2H4zm92 0H12a2 2 0 0 1-2-2V8a8.01 8.01 0 0 1 8-8h72a8.01 8.01 0 0 1 8 8v48a2 2 0 0 1-2 2zm-82-4h80V8a4 4 0 0 0-4-4H18a4 4 0 0 0-4 4v46zm43-33H22a2 2 0 0 1 0-4h35a2 2 0 0 1 0 4zm0 10H22a2 2 0 0 1 0-4h35a2 2 0 0 1 0 4zm18.879-.39a2 2 0 0 1-1.414-.59l-5.486-5.48a2 2 0 1 1 2.829-2.83l5.485 5.48a2.005 2.005 0 0 1-1.414 3.42zm0 0a2.005 2.005 0 0 1-1.414-3.42l9.727-9.73a2 2 0 0 1 2.829 2.83l-9.728 9.73a2 2 0 0 1-1.414.59zM37 41H22a2 2 0 0 1 0-4h15a2 2 0 0 1 0 4z"/></symbol><symbol id="icon-phone" viewBox="0 0 93.32 90"><path class="cls-1" d="M68.66 90h-44a8.01 8.01 0 0 1-8-8V8a8.01 8.01 0 0 1 8-8h44a8.01 8.01 0 0 1 8 8v74a8.01 8.01 0 0 1-8 8zm-44-86a4 4 0 0 0-4 4v74a4 4 0 0 0 4 4h44a4 4 0 0 0 4-4V8a4 4 0 0 0-4-4h-44zm50 12h-56a2 2 0 0 1 0-4h56a2 2 0 0 1 0 4zm0 56h-56a2 2 0 0 1 0-4h56a2 2 0 0 1 0 4zm-72.63-.5a2 2 0 0 1-1-3.732l89.26-49a2 2 0 0 1 2 3.464l-89.26 49a2.007 2.007 0 0 1-1 .268zM47.66 79a1 1 0 1 1-1-1 1 1 0 0 1 1 1zm-1 3a3 3 0 1 1 3-3 3.006 3.006 0 0 1-3 3z"/></symbol><symbol id="icon-pig" viewBox="0 0 97 97.937"><path class="cls-1" d="M71.036 97.931a4.013 4.013 0 0 1-3.466-2l-3.586-6.212a50.083 50.083 0 0 1-29.971 0l-3.59 6.215a4 4 0 0 1-5.468 1.463l-6.935-4a4 4 0 0 1-1.868-2.415 3.947 3.947 0 0 1 .389-3.05l3.267-5.7C11.564 75.625 6.874 66.525 6.874 57.016c0-19.3 18.785-35 41.875-35a47.91 47.91 0 0 1 13.267 1.852L74.28 19.15A2 2 0 0 1 77 21.009v10.585a31.963 31.963 0 0 1 11.5 14.415h5.937a2.531 2.531 0 0 1 1.895.682 2.639 2.639 0 0 1 .666 2.077v16.5c.008 1.212.02 2.87-1.042 3.939a2.738 2.738 0 0 1-1.959.809h-5.6a38.878 38.878 0 0 1-10.222 12.673l3.22 5.191a4 4 0 0 1-1.432 5.519l-6.928 4a4.007 4.007 0 0 1-1.999.532zm-6.14-12.632a2 2 0 0 1 1.732 1l4.406 7.631 6.929-4-4.141-6.67a2 2 0 0 1 .519-2.669 34.482 34.482 0 0 0 10.953-13.387 2 2 0 0 1 1.83-1.192h5.87c.009-.264.007-.54.006-.72v-15.28h-5.875a2 2 0 0 1-1.883-1.327A28.066 28.066 0 0 0 73.92 34.351a2 2 0 0 1-.92-1.684v-8.746l-10.176 3.915a1.991 1.991 0 0 1-1.291.05 44.078 44.078 0 0 0-12.783-1.877c-20.884 0-37.875 13.906-37.875 31 0 8.753 4.636 17.165 12.72 23.078a2 2 0 0 1 .554 2.609l-4.14 7.226 6.947 4 4.414-7.633a2 2 0 0 1 2.406-.883 45.918 45.918 0 0 0 30.447 0 2.005 2.005 0 0 1 .677-.11zM12.155 45.871a2.005 2.005 0 0 1-.308-.023A14 14 0 0 1 3.64 22.595a2 2 0 1 1 2.959 2.691 10 10 0 0 0 5.859 16.609 2 2 0 0 1-.303 3.973zM74 47.009a1 1 0 1 1-1-1 1 1 0 0 1 1 1zm-1 3a3 3 0 1 1 3-3 3 3 0 0 1-3 3zm-24-32a9 9 0 1 1 9-9 9.01 9.01 0 0 1-9 9zm0-14a5 5 0 1 0 5 5 5.006 5.006 0 0 0-5-5zm-15.042 36.3a2 2 0 0 1-1.256-3.558 26 26 0 0 1 32.587-.007 2 2 0 1 1-2.508 3.115 22 22 0 0 0-27.569.007 1.994 1.994 0 0 1-1.255.444z"/></symbol><symbol id="icon-real-order" viewBox="0 0 207 147"><path id="Rectangle_13_copy_14" data-name="Rectangle 13 copy 14" class="cls-1" d="M3 2h200v40H3z"/><path id="Rectangle_13_copy_20" data-name="Rectangle 13 copy 20" class="cls-2" d="M13 12h120v6H13z"/><path id="Rectangle_13_copy_22" data-name="Rectangle 13 copy 22" class="cls-3" d="M173 12h20v6h-20z"/><path id="Rectangle_13_copy_21" data-name="Rectangle 13 copy 21" class="cls-4" d="M13 26h40v6H13z"/><path id="Rectangle_13_copy_15" data-name="Rectangle 13 copy 15" class="cls-5" d="M3 52h200v40H3z"/><path id="Rectangle_13_copy_23" data-name="Rectangle 13 copy 23" class="cls-2" d="M13 62h80v6H13z"/><path id="Rectangle_13_copy_23-2" data-name="Rectangle 13 copy 23" class="cls-3" d="M173 62h20v6h-20z"/><path id="Rectangle_13_copy_23-3" data-name="Rectangle 13 copy 23" class="cls-4" d="M13 76h40v6H13z"/><path id="Rectangle_13_copy_16" data-name="Rectangle 13 copy 16" class="cls-6" d="M3 102h200v40H3z"/><path id="Rectangle_13_copy_24" data-name="Rectangle 13 copy 24" class="cls-2" d="M13 112h120v6H13z"/><path id="Rectangle_13_copy_24-2" data-name="Rectangle 13 copy 24" class="cls-3" d="M173 112h20v6h-20z"/><path id="Rectangle_13_copy_24-3" data-name="Rectangle 13 copy 24" class="cls-4" d="M13 126h40v6H13z"/></symbol><symbol id="icon-search" viewBox="0 0 16.062 16.094"><path id="Shape_3_copy_3" data-name="Shape 3 copy 3" class="cls-1" d="M816.984 40.953a7 7 0 1 1 7-7 7.008 7.008 0 0 1-7 7zm0-12a5 5 0 1 0 5 5 5.006 5.006 0 0 0-5-5zm8.032 14.063a1 1 0 0 1-.707-.293l-3.516-3.61a1 1 0 0 1 1.414-1.414l3.516 3.609a1 1 0 0 1-.707 1.708z" transform="translate(-809.969 -26.938)"/></symbol><symbol id="icon-your-offer" viewBox="0 0 207 147"><path id="Rectangle_13_copy_18" data-name="Rectangle 13 copy 18" class="cls-1" d="M3 2h200v140H3z"/><path id="Rectangle_13_copy_27" data-name="Rectangle 13 copy 27" class="cls-2" d="M750 304h180.009v78H750v-78z" transform="translate(-737 -292)"/><path id="Rectangle_13_copy_29" data-name="Rectangle 13 copy 29" class="cls-3" d="M13 100h50v6H13z"/><path id="Rectangle_13_copy_30" data-name="Rectangle 13 copy 30" class="cls-3" d="M13 116h50v16H13z"/></symbol></svg>