<svg xmlns="http://www.w3.org/2000/svg" width="86" height="86" viewBox="0 0 86 86">
  <defs>
    <style>
      .cls-1 {
        fill: #94b651;        
      }
    </style>
  </defs>
  <path class="cls-1" d="M450,883a43,43,0,1,1,43-43A43.049,43.049,0,0,1,450,883Zm0-82a39,39,0,1,0,39,39A39.044,39.044,0,0,0,450,801Zm0,12a2,2,0,0,1-2-2v-6a2,2,0,0,1,4,0v6A2,2,0,0,1,450,813Zm0,64a2,2,0,0,1-2-2v-6a2,2,0,0,1,4,0v6A2,2,0,0,1,450,877Zm35-35h-6a2,2,0,0,1,0-4h6A2,2,0,0,1,485,842Zm-64,0h-6a2,2,0,0,1,0-4h6A2,2,0,0,1,421,842Zm29,0a2,2,0,0,1-2-2V822a2,2,0,0,1,4,0v18A2,2,0,0,1,450,842Zm22,0H450a2,2,0,0,1,0-4h22A2,2,0,0,1,472,842Zm-1.494-20.506a2,2,0,0,1-1.414-3.414l4.243-4.243a2,2,0,1,1,2.828,2.828l-4.243,4.243A1.99,1.99,0,0,1,470.506,821.494Zm-45.254,45.255a2,2,0,0,1-1.415-3.414l4.243-4.243a2,2,0,1,1,2.828,2.828l-4.242,4.243A1.994,1.994,0,0,1,425.252,866.749Zm49.5,0a1.99,1.99,0,0,1-1.414-.586l-4.243-4.243a2,2,0,1,1,2.828-2.828l4.243,4.243A2,2,0,0,1,474.749,866.749Zm-45.255-45.255a1.99,1.99,0,0,1-1.414-.586l-4.243-4.243a2,2,0,1,1,2.829-2.828l4.242,4.243A2,2,0,0,1,429.494,821.494Z" transform="translate(-407 -797)"/>
</svg>
