<svg xmlns="http://www.w3.org/2000/svg" width="16.06" height="16.031" viewBox="0 0 16.06 16.031">
  <defs>
    <style>
      .cls-1 {
        fill: #fff;        
      }
    </style>
  </defs>
  <path class="cls-1" d="M2161.98,135.953a7,7,0,1,1,7-7A7.008,7.008,0,0,1,2161.98,135.953Zm0-12a5,5,0,1,0,5,5A5.01,5.01,0,0,0,2161.98,123.953Zm8.04,14.062a0.988,0.988,0,0,1-.71-0.292l-3.52-3.61a1,1,0,0,1,1.42-1.414l3.51,3.61a1,1,0,0,1,0,1.414A0.982,0.982,0,0,1,2170.02,138.015Z" transform="translate(-2154.97 -121.969)"/>
</svg>
