<svg xmlns="http://www.w3.org/2000/svg" width="108" height="68" viewBox="0 0 108 68">
  <defs>
    <style>
      .cls-1 {
        fill: #94b651;        
      }
    </style>
  </defs>
  <path class="cls-1" d="M1179,1164h-92a8.011,8.011,0,0,1-8-8v-4a2.006,2.006,0,0,1,2-2h104a2.006,2.006,0,0,1,2,2v4A8.011,8.011,0,0,1,1179,1164Zm-96-10v2a4,4,0,0,0,4,4h92a4,4,0,0,0,4-4v-2H1083Zm92,0h-84a2.006,2.006,0,0,1-2-2v-48a8.011,8.011,0,0,1,8-8h72a8.011,8.011,0,0,1,8,8v48A2.006,2.006,0,0,1,1175,1154Zm-82-4h80v-46a4,4,0,0,0-4-4h-72a4,4,0,0,0-4,4v46Zm40-8a17,17,0,1,1,17-17A17.024,17.024,0,0,1,1133,1142Zm0-30a13,13,0,1,0,13,13A13.012,13.012,0,0,0,1133,1112Zm7,15h-14a2,2,0,0,1,0-4h14A2,2,0,0,1,1140,1127Zm-7,7a2.006,2.006,0,0,1-2-2v-14a2,2,0,0,1,4,0v14A2.006,2.006,0,0,1,1133,1134Z" transform="translate(-1079 -1096)"/>
</svg>
