<svg xmlns="http://www.w3.org/2000/svg" width="108" height="68" viewBox="0 0 108 68">
  <defs>
    <style>
      .cls-1 {
        fill: #94b651;        
      }
    </style>
  </defs>
  <path class="cls-1" d="M595,1164H503a8.01,8.01,0,0,1-8-8v-4a2,2,0,0,1,2-2H601a2,2,0,0,1,2,2v4A8.01,8.01,0,0,1,595,1164Zm-96-10v2a4,4,0,0,0,4,4h92a4,4,0,0,0,4-4v-2H499Zm92,0H507a2,2,0,0,1-2-2v-48a8.01,8.01,0,0,1,8-8h72a8.01,8.01,0,0,1,8,8v48A2,2,0,0,1,591,1154Zm-82-4h80v-46a4,4,0,0,0-4-4H513a4,4,0,0,0-4,4v46Zm43-33H517a2,2,0,0,1,0-4h35A2,2,0,0,1,552,1117Zm0,10H517a2,2,0,0,1,0-4h35A2,2,0,0,1,552,1127Zm18.879-.39a2,2,0,0,1-1.414-.59l-5.486-5.48a2,2,0,1,1,2.829-2.83l5.485,5.48A2.005,2.005,0,0,1,570.879,1126.61Zm0,0a2.005,2.005,0,0,1-1.414-3.42l9.727-9.73a2,2,0,0,1,2.829,2.83l-9.728,9.73A2,2,0,0,1,570.879,1126.61ZM532,1137H517a2,2,0,0,1,0-4h15A2,2,0,0,1,532,1137Z" transform="translate(-495 -1096)"/>
</svg>
