<svg xmlns="http://www.w3.org/2000/svg" width="93.32" height="90" viewBox="0 0 93.32 90">
  <defs>
    <style>
      .cls-1 {
        fill: #94b651;        
      }
    </style>
  </defs>
  <path class="cls-1" d="M1252,883h-44a8.01,8.01,0,0,1-8-8V801a8.01,8.01,0,0,1,8-8h44a8.01,8.01,0,0,1,8,8v74A8.01,8.01,0,0,1,1252,883Zm-44-86a4,4,0,0,0-4,4v74a4,4,0,0,0,4,4h44a4,4,0,0,0,4-4V801a4,4,0,0,0-4-4h-44Zm50,12h-56a2,2,0,0,1,0-4h56A2,2,0,0,1,1258,809Zm0,56h-56a2,2,0,0,1,0-4h56A2,2,0,0,1,1258,865Zm-72.63-.5a2,2,0,0,1-1-3.732l89.26-49a2,2,0,0,1,2,3.464l-89.26,49A2.007,2.007,0,0,1,1185.37,864.5ZM1231,872a1,1,0,1,1-1-1A1,1,0,0,1,1231,872Zm-1,3a3,3,0,1,1,3-3A3.006,3.006,0,0,1,1230,875Z" transform="translate(-1183.34 -793)"/>
</svg>
