<svg xmlns="http://www.w3.org/2000/svg" width="97" height="97.937" viewBox="0 0 97 97.937">
  <defs>
    <style>
      .cls-1 {
        fill: #94b651;        
      }
    </style>
  </defs>
  <path class="cls-1" d="M862.036,887.9a4.013,4.013,0,0,1-3.466-2l-3.586-6.212a50.083,50.083,0,0,1-29.971,0l-3.59,6.215a4,4,0,0,1-5.468,1.463l-6.935-4a4,4,0,0,1-1.868-2.415,3.947,3.947,0,0,1,.389-3.05l3.267-5.7c-8.244-6.607-12.934-15.707-12.934-25.216,0-19.3,18.785-35,41.875-35a47.91,47.91,0,0,1,13.267,1.852l12.264-4.718A2,2,0,0,1,868,810.978v10.585a31.963,31.963,0,0,1,11.5,14.415l5.937,0a2.531,2.531,0,0,1,1.895.682,2.639,2.639,0,0,1,.666,2.077v16.5c0.008,1.212.02,2.87-1.042,3.939a2.738,2.738,0,0,1-1.959.809h-5.6a38.878,38.878,0,0,1-10.222,12.673l3.22,5.191a4,4,0,0,1-1.432,5.519l-6.928,4A4.007,4.007,0,0,1,862.036,887.9Zm-6.14-12.632a2,2,0,0,1,1.732,1l4.406,7.631,6.929-4-4.141-6.67a2,2,0,0,1,.519-2.669,34.482,34.482,0,0,0,10.953-13.387,2,2,0,0,1,1.83-1.192h5.87c0.009-.264.007-0.54,0.006-0.72v-15.28h-5.875a2,2,0,0,1-1.883-1.327,28.066,28.066,0,0,0-11.322-14.334,2,2,0,0,1-.92-1.684V813.89l-10.176,3.915a1.991,1.991,0,0,1-1.291.05,44.078,44.078,0,0,0-12.783-1.877c-20.884,0-37.875,13.906-37.875,31,0,8.753,4.636,17.165,12.72,23.078a2,2,0,0,1,.554,2.609l-4.14,7.226,6.947,4,4.414-7.633a2,2,0,0,1,2.406-.883,45.918,45.918,0,0,0,30.447,0A2.005,2.005,0,0,1,855.9,875.265Zm-52.741-39.428a2.005,2.005,0,0,1-.308-0.023,14,14,0,0,1-8.207-23.253,2,2,0,1,1,2.959,2.691,10,10,0,0,0,5.859,16.609A2,2,0,0,1,803.155,835.837ZM865,836.978a1,1,0,1,1-1-1A1,1,0,0,1,865,836.978Zm-1,3a3,3,0,1,1,3-3A3,3,0,0,1,864,839.978Zm-24-32a9,9,0,1,1,9-9A9.01,9.01,0,0,1,840,807.978Zm0-14a5,5,0,1,0,5,5A5.006,5.006,0,0,0,840,793.978Zm-15.042,36.3a2,2,0,0,1-1.256-3.558,26,26,0,0,1,32.587-.007,2,2,0,1,1-2.508,3.115,22,22,0,0,0-27.569.007A1.994,1.994,0,0,1,824.957,830.279Z" transform="translate(-791 -789.969)"/>
</svg>
