<svg xmlns="http://www.w3.org/2000/svg" width="16.062" height="16.094" viewBox="0 0 16.062 16.094">
  <defs>
    <style>
      .cls-1 {fill: #ea4953;}
    </style>
  </defs>
  <path id="Shape_3_copy_3" data-name="Shape 3 copy 3" class="cls-1" d="M816.984,40.953a7,7,0,1,1,7-7A7.008,7.008,0,0,1,816.984,40.953Zm0-12a5,5,0,1,0,5,5A5.006,5.006,0,0,0,816.984,28.953Zm8.032,14.063a1,1,0,0,1-.707-0.293l-3.516-3.61a1,1,0,0,1,1.414-1.414l3.516,3.609A1,1,0,0,1,825.016,43.016Z" transform="translate(-809.969 -26.938)"/>
</svg>
